<?xml version="1.0" encoding="UTF-8" ?>
<svg version="1.1" width="512" height="512" xmlns="http://www.w3.org/2000/svg" shape-rendering="crispEdges">
<rect x="220" y="80" width="4" height="4" fill="#BFBFBF" />
<rect x="224" y="80" width="212" height="4" fill="#C7C7C7" />
<rect x="216" y="84" width="4" height="4" fill="#9A9A9A" />
<rect x="220" y="84" width="4" height="168" fill="#C7C7C7" />
<rect x="224" y="84" width="208" height="48" fill="#D8D8D8" />
<rect x="432" y="84" width="4" height="338" fill="#C7C7C7" />
<rect x="212" y="88" width="4" height="4" fill="#6F6F6F" />
<rect x="216" y="88" width="4" height="164" fill="#A9A9A9" />
<rect x="208" y="92" width="4" height="4" fill="#5E5E5E" />
<rect x="212" y="92" width="4" height="160" fill="#9A9A9A" />
<rect x="208" y="96" width="4" height="156" fill="#6F6F6F" />
<rect x="224" y="132" width="20" height="120" fill="#D8D8D8" />
<rect x="244" y="132" width="140" height="16" fill="#C7C7C7" />
<rect x="384" y="132" width="48" height="48" fill="#D8D8D8" />
<rect x="244" y="148" width="140" height="8" fill="#D8D8D8" />
<rect x="244" y="156" width="96" height="16" fill="#C7C7C7" />
<rect x="340" y="156" width="44" height="24" fill="#D8D8D8" />
<rect x="244" y="172" width="96" height="8" fill="#D8D8D8" />
<rect x="244" y="180" width="148" height="16" fill="#C7C7C7" />
<rect x="392" y="180" width="40" height="166" fill="#D8D8D8" />
<rect x="244" y="196" width="148" height="52" fill="#D8D8D8" />
<rect x="124" y="248" width="16" height="4" fill="#8B8B8B" />
<rect x="244" y="248" width="32" height="4" fill="#D8D8D8" />
<rect x="276" y="248" width="16" height="4" fill="#B4B4B4" />
<rect x="292" y="248" width="100" height="4" fill="#D8D8D8" />
<rect x="120" y="252" width="4" height="4" fill="#8B8B8B" />
<rect x="124" y="252" width="16" height="14" fill="#D8D8D8" />
<rect x="140" y="252" width="8" height="4" fill="#8B8B8B" />
<rect x="164" y="252" width="88" height="4" fill="#B4B4B4" />
<rect x="252" y="252" width="16" height="4" fill="#D8D8D8" />
<rect x="268" y="252" width="8" height="4" fill="#B4B4B4" />
<rect x="276" y="252" width="16" height="14" fill="#D8D8D8" />
<rect x="292" y="252" width="4" height="4" fill="#B4B4B4" />
<rect x="296" y="252" width="96" height="4" fill="#D8D8D8" />
<rect x="112" y="256" width="4" height="6" fill="#818181" />
<rect x="116" y="256" width="4" height="14" fill="#8B8B8B" />
<rect x="120" y="256" width="4" height="14" fill="#D8D8D8" />
<rect x="140" y="256" width="8" height="6" fill="#D8D8D8" />
<rect x="148" y="256" width="4" height="6" fill="#C9C9C9" />
<rect x="152" y="256" width="16" height="6" fill="#B4B4B4" />
<rect x="168" y="256" width="80" height="14" fill="#D4D4D4" />
<rect x="248" y="256" width="20" height="6" fill="#B4B4B4" />
<rect x="268" y="256" width="8" height="6" fill="#D8D8D8" />
<rect x="292" y="256" width="4" height="14" fill="#D8D8D8" />
<rect x="296" y="256" width="4" height="14" fill="#B4B4B4" />
<rect x="300" y="256" width="92" height="14" fill="#D8D8D8" />
<rect x="108" y="262" width="4" height="4" fill="#818181" />
<rect x="112" y="262" width="4" height="8" fill="#9B9B9B" />
<rect x="140" y="262" width="4" height="4" fill="#D8D8D8" />
<rect x="144" y="262" width="12" height="4" fill="#B4B4B4" />
<rect x="156" y="262" width="12" height="4" fill="#D4D4D4" />
<rect x="248" y="262" width="12" height="4" fill="#D4D4D4" />
<rect x="260" y="262" width="12" height="4" fill="#B4B4B4" />
<rect x="272" y="262" width="4" height="4" fill="#D8D8D8" />
<rect x="104" y="266" width="4" height="12" fill="#818181" />
<rect x="108" y="266" width="4" height="12" fill="#9B9B9B" />
<rect x="124" y="266" width="4" height="4" fill="#D8D8D8" />
<rect x="128" y="266" width="16" height="4" fill="#B4B4B4" />
<rect x="144" y="266" width="16" height="20" fill="#E5E5E5" />
<rect x="160" y="266" width="8" height="4" fill="#D4D4D4" />
<rect x="248" y="266" width="8" height="4" fill="#D4D4D4" />
<rect x="256" y="266" width="16" height="20" fill="#E5E5E5" />
<rect x="272" y="266" width="16" height="4" fill="#B4B4B4" />
<rect x="288" y="266" width="4" height="4" fill="#D8D8D8" />
<rect x="112" y="270" width="4" height="8" fill="#8B8B8B" />
<rect x="116" y="270" width="4" height="4" fill="#D8D8D8" />
<rect x="120" y="270" width="8" height="4" fill="#B4B4B4" />
<rect x="128" y="270" width="16" height="16" fill="#E5E5E5" />
<rect x="160" y="270" width="24" height="24" fill="#E5E5E5" />
<rect x="184" y="270" width="48" height="4" fill="#D4D4D4" />
<rect x="232" y="270" width="24" height="24" fill="#E5E5E5" />
<rect x="272" y="270" width="12" height="16" fill="#E5E5E5" />
<rect x="284" y="270" width="12" height="4" fill="#B4B4B4" />
<rect x="296" y="270" width="4" height="4" fill="#D8D8D8" />
<rect x="300" y="270" width="4" height="12" fill="#B4B4B4" />
<rect x="304" y="270" width="88" height="12" fill="#D8D8D8" />
<rect x="116" y="274" width="4" height="8" fill="#C9C9C9" />
<rect x="120" y="274" width="8" height="16" fill="#E5E5E5" />
<rect x="184" y="274" width="48" height="20" fill="#E5E5E5" />
<rect x="284" y="274" width="12" height="16" fill="#E5E5E5" />
<rect x="296" y="274" width="4" height="4" fill="#B4B4B4" />
<rect x="100" y="278" width="4" height="8" fill="#818181" />
<rect x="104" y="278" width="8" height="4" fill="#9C9C9C" />
<rect x="112" y="278" width="4" height="4" fill="#B4B4B4" />
<rect x="296" y="278" width="4" height="4" fill="#C9C9C9" />
<rect x="104" y="282" width="8" height="4" fill="#B4B4B4" />
<rect x="112" y="282" width="4" height="4" fill="#C9C9C9" />
<rect x="116" y="282" width="4" height="16" fill="#E5E5E5" />
<rect x="296" y="282" width="4" height="16" fill="#E5E5E5" />
<rect x="300" y="282" width="8" height="4" fill="#C9C9C9" />
<rect x="308" y="282" width="84" height="4" fill="#D8D8D8" />
<rect x="100" y="286" width="4" height="4" fill="#9C9C9C" />
<rect x="104" y="286" width="4" height="12" fill="#C9C9C9" />
<rect x="108" y="286" width="8" height="20" fill="#E5E5E5" />
<rect x="128" y="286" width="4" height="4" fill="#E5E5E5" />
<rect x="132" y="286" width="20" height="4" fill="#D4D4D4" />
<rect x="152" y="286" width="8" height="4" fill="#E5E5E5" />
<rect x="256" y="286" width="8" height="4" fill="#E5E5E5" />
<rect x="264" y="286" width="20" height="4" fill="#D4D4D4" />
<rect x="300" y="286" width="8" height="20" fill="#E5E5E5" />
<rect x="308" y="286" width="4" height="12" fill="#C9C9C9" />
<rect x="312" y="286" width="80" height="12" fill="#D8D8D8" />
<rect x="96" y="290" width="4" height="4" fill="#818181" />
<rect x="100" y="290" width="4" height="8" fill="#B4B4B4" />
<rect x="120" y="290" width="4" height="4" fill="#E5E5E5" />
<rect x="124" y="290" width="12" height="4" fill="#D4D4D4" />
<rect x="136" y="290" width="12" height="4" fill="#969696" />
<rect x="148" y="290" width="12" height="4" fill="#D4D4D4" />
<rect x="256" y="290" width="16" height="4" fill="#D4D4D4" />
<rect x="272" y="290" width="4" height="4" fill="#969696" />
<rect x="276" y="290" width="16" height="4" fill="#D4D4D4" />
<rect x="292" y="290" width="4" height="4" fill="#E5E5E5" />
<rect x="92" y="294" width="4" height="12" fill="#818181" />
<rect x="96" y="294" width="4" height="8" fill="#9C9C9C" />
<rect x="120" y="294" width="12" height="12" fill="#D4D4D4" />
<rect x="132" y="294" width="4" height="12" fill="#7C7C7C" />
<rect x="136" y="294" width="12" height="12" fill="#8B8B8B" />
<rect x="148" y="294" width="4" height="12" fill="#969696" />
<rect x="152" y="294" width="12" height="12" fill="#D4D4D4" />
<rect x="164" y="294" width="40" height="4" fill="#E5E5E5" />
<rect x="204" y="294" width="8" height="4" fill="#969696" />
<rect x="212" y="294" width="40" height="4" fill="#E5E5E5" />
<rect x="252" y="294" width="16" height="4" fill="#D4D4D4" />
<rect x="268" y="294" width="8" height="8" fill="#8B8B8B" />
<rect x="276" y="294" width="4" height="4" fill="#969696" />
<rect x="280" y="294" width="16" height="4" fill="#D4D4D4" />
<rect x="100" y="298" width="4" height="24" fill="#C9C9C9" />
<rect x="104" y="298" width="4" height="120" fill="#E5E5E5" />
<rect x="116" y="298" width="4" height="12" fill="#D4D4D4" />
<rect x="164" y="298" width="4" height="12" fill="#D4D4D4" />
<rect x="168" y="298" width="32" height="8" fill="#E5E5E5" />
<rect x="200" y="298" width="4" height="8" fill="#7C7C7C" />
<rect x="204" y="298" width="8" height="8" fill="#8B8B8B" />
<rect x="212" y="298" width="4" height="8" fill="#969696" />
<rect x="216" y="298" width="32" height="8" fill="#E5E5E5" />
<rect x="248" y="298" width="16" height="8" fill="#D4D4D4" />
<rect x="264" y="298" width="4" height="4" fill="#7C7C7C" />
<rect x="276" y="298" width="4" height="8" fill="#8B8B8B" />
<rect x="280" y="298" width="4" height="4" fill="#969696" />
<rect x="284" y="298" width="16" height="8" fill="#D4D4D4" />
<rect x="308" y="298" width="4" height="120" fill="#E5E5E5" />
<rect x="312" y="298" width="4" height="24" fill="#C9C9C9" />
<rect x="316" y="298" width="76" height="24" fill="#D8D8D8" />
<rect x="96" y="302" width="4" height="20" fill="#B4B4B4" />
<rect x="264" y="302" width="4" height="12" fill="#D4D4D4" />
<rect x="268" y="302" width="4" height="4" fill="#7C7C7C" />
<rect x="272" y="302" width="4" height="4" fill="#8B8B8B" />
<rect x="280" y="302" width="4" height="12" fill="#D4D4D4" />
<rect x="88" y="306" width="4" height="24" fill="#818181" />
<rect x="92" y="306" width="4" height="20" fill="#9C9C9C" />
<rect x="108" y="306" width="4" height="116" fill="#E5E5E5" />
<rect x="112" y="306" width="4" height="20" fill="#D4D4D4" />
<rect x="120" y="306" width="12" height="4" fill="#969696" />
<rect x="132" y="306" width="4" height="4" fill="#D4D4D4" />
<rect x="136" y="306" width="12" height="4" fill="#7C7C7C" />
<rect x="148" y="306" width="4" height="4" fill="#D4D4D4" />
<rect x="152" y="306" width="12" height="4" fill="#969696" />
<rect x="168" y="306" width="4" height="20" fill="#D4D4D4" />
<rect x="172" y="306" width="32" height="16" fill="#E5E5E5" />
<rect x="204" y="306" width="8" height="4" fill="#7C7C7C" />
<rect x="212" y="306" width="32" height="16" fill="#E5E5E5" />
<rect x="244" y="306" width="12" height="4" fill="#D4D4D4" />
<rect x="256" y="306" width="4" height="4" fill="#969696" />
<rect x="260" y="306" width="4" height="4" fill="#D4D4D4" />
<rect x="268" y="306" width="4" height="20" fill="#D4D4D4" />
<rect x="272" y="306" width="4" height="4" fill="#7C7C7C" />
<rect x="276" y="306" width="4" height="20" fill="#D4D4D4" />
<rect x="284" y="306" width="4" height="4" fill="#D4D4D4" />
<rect x="288" y="306" width="4" height="4" fill="#969696" />
<rect x="292" y="306" width="12" height="4" fill="#D4D4D4" />
<rect x="304" y="306" width="4" height="116" fill="#E5E5E5" />
<rect x="116" y="310" width="4" height="12" fill="#7C7C7C" />
<rect x="120" y="310" width="12" height="12" fill="#8B8B8B" />
<rect x="132" y="310" width="4" height="12" fill="#969696" />
<rect x="136" y="310" width="12" height="12" fill="#D4D4D4" />
<rect x="148" y="310" width="4" height="12" fill="#7C7C7C" />
<rect x="152" y="310" width="12" height="12" fill="#8B8B8B" />
<rect x="164" y="310" width="4" height="12" fill="#969696" />
<rect x="204" y="310" width="8" height="32" fill="#E5E5E5" />
<rect x="244" y="310" width="8" height="4" fill="#D4D4D4" />
<rect x="252" y="310" width="8" height="8" fill="#8B8B8B" />
<rect x="260" y="310" width="4" height="4" fill="#969696" />
<rect x="272" y="310" width="4" height="12" fill="#D4D4D4" />
<rect x="284" y="310" width="8" height="8" fill="#8B8B8B" />
<rect x="292" y="310" width="4" height="4" fill="#969696" />
<rect x="296" y="310" width="8" height="4" fill="#D4D4D4" />
<rect x="244" y="314" width="4" height="12" fill="#D4D4D4" />
<rect x="248" y="314" width="4" height="4" fill="#7C7C7C" />
<rect x="260" y="314" width="4" height="8" fill="#8B8B8B" />
<rect x="264" y="314" width="4" height="4" fill="#969696" />
<rect x="280" y="314" width="4" height="4" fill="#7C7C7C" />
<rect x="292" y="314" width="4" height="8" fill="#8B8B8B" />
<rect x="296" y="314" width="4" height="4" fill="#969696" />
<rect x="300" y="314" width="4" height="12" fill="#D4D4D4" />
<rect x="248" y="318" width="4" height="16" fill="#D4D4D4" />
<rect x="252" y="318" width="4" height="4" fill="#7C7C7C" />
<rect x="256" y="318" width="4" height="4" fill="#8B8B8B" />
<rect x="264" y="318" width="4" height="12" fill="#D4D4D4" />
<rect x="280" y="318" width="4" height="12" fill="#D4D4D4" />
<rect x="284" y="318" width="4" height="4" fill="#7C7C7C" />
<rect x="288" y="318" width="4" height="4" fill="#8B8B8B" />
<rect x="296" y="318" width="4" height="16" fill="#D4D4D4" />
<rect x="96" y="322" width="4" height="16" fill="#C9C9C9" />
<rect x="100" y="322" width="4" height="96" fill="#E5E5E5" />
<rect x="116" y="322" width="4" height="12" fill="#D4D4D4" />
<rect x="120" y="322" width="12" height="4" fill="#7C7C7C" />
<rect x="132" y="322" width="4" height="4" fill="#D4D4D4" />
<rect x="136" y="322" width="12" height="4" fill="#969696" />
<rect x="148" y="322" width="4" height="4" fill="#D4D4D4" />
<rect x="152" y="322" width="12" height="4" fill="#7C7C7C" />
<rect x="164" y="322" width="4" height="12" fill="#D4D4D4" />
<rect x="172" y="322" width="12" height="24" fill="#E5E5E5" />
<rect x="184" y="322" width="4" height="4" fill="#7C7C7C" />
<rect x="188" y="322" width="4" height="4" fill="#8B8B8B" />
<rect x="192" y="322" width="4" height="4" fill="#969696" />
<rect x="196" y="322" width="8" height="4" fill="#E5E5E5" />
<rect x="212" y="322" width="4" height="4" fill="#7C7C7C" />
<rect x="216" y="322" width="4" height="4" fill="#8B8B8B" />
<rect x="220" y="322" width="4" height="4" fill="#969696" />
<rect x="224" y="322" width="20" height="4" fill="#E5E5E5" />
<rect x="252" y="322" width="4" height="16" fill="#D4D4D4" />
<rect x="256" y="322" width="4" height="4" fill="#7C7C7C" />
<rect x="260" y="322" width="4" height="20" fill="#D4D4D4" />
<rect x="272" y="322" width="4" height="4" fill="#969696" />
<rect x="284" y="322" width="4" height="20" fill="#D4D4D4" />
<rect x="288" y="322" width="4" height="4" fill="#7C7C7C" />
<rect x="292" y="322" width="4" height="16" fill="#D4D4D4" />
<rect x="312" y="322" width="4" height="96" fill="#E5E5E5" />
<rect x="316" y="322" width="4" height="16" fill="#C9C9C9" />
<rect x="320" y="322" width="72" height="16" fill="#D8D8D8" />
<rect x="92" y="326" width="4" height="12" fill="#B4B4B4" />
<rect x="112" y="326" width="4" height="96" fill="#E5E5E5" />
<rect x="120" y="326" width="12" height="12" fill="#D4D4D4" />
<rect x="132" y="326" width="4" height="12" fill="#7C7C7C" />
<rect x="136" y="326" width="12" height="12" fill="#8B8B8B" />
<rect x="148" y="326" width="4" height="12" fill="#969696" />
<rect x="152" y="326" width="12" height="12" fill="#D4D4D4" />
<rect x="168" y="326" width="4" height="28" fill="#E5E5E5" />
<rect x="184" y="326" width="4" height="20" fill="#E5E5E5" />
<rect x="188" y="326" width="4" height="4" fill="#7C7C7C" />
<rect x="192" y="326" width="4" height="4" fill="#8B8B8B" />
<rect x="196" y="326" width="4" height="4" fill="#969696" />
<rect x="200" y="326" width="4" height="16" fill="#E5E5E5" />
<rect x="212" y="326" width="4" height="16" fill="#E5E5E5" />
<rect x="216" y="326" width="4" height="4" fill="#7C7C7C" />
<rect x="220" y="326" width="4" height="4" fill="#8B8B8B" />
<rect x="224" y="326" width="4" height="4" fill="#969696" />
<rect x="228" y="326" width="20" height="20" fill="#E5E5E5" />
<rect x="256" y="326" width="4" height="16" fill="#D4D4D4" />
<rect x="268" y="326" width="8" height="8" fill="#8B8B8B" />
<rect x="276" y="326" width="4" height="4" fill="#969696" />
<rect x="288" y="326" width="4" height="16" fill="#D4D4D4" />
<rect x="300" y="326" width="4" height="96" fill="#E5E5E5" />
<rect x="84" y="330" width="4" height="16" fill="#818181" />
<rect x="88" y="330" width="4" height="12" fill="#9C9C9C" />
<rect x="188" y="330" width="12" height="12" fill="#E5E5E5" />
<rect x="216" y="330" width="12" height="12" fill="#E5E5E5" />
<rect x="264" y="330" width="4" height="4" fill="#7C7C7C" />
<rect x="276" y="330" width="4" height="8" fill="#8B8B8B" />
<rect x="280" y="330" width="4" height="4" fill="#969696" />
<rect x="116" y="334" width="4" height="84" fill="#E5E5E5" />
<rect x="164" y="334" width="4" height="24" fill="#E5E5E5" />
<rect x="248" y="334" width="4" height="24" fill="#E5E5E5" />
<rect x="264" y="334" width="4" height="12" fill="#D4D4D4" />
<rect x="268" y="334" width="4" height="4" fill="#7C7C7C" />
<rect x="272" y="334" width="4" height="4" fill="#8B8B8B" />
<rect x="280" y="334" width="4" height="12" fill="#D4D4D4" />
<rect x="296" y="334" width="4" height="84" fill="#E5E5E5" />
<rect x="92" y="338" width="4" height="16" fill="#C9C9C9" />
<rect x="96" y="338" width="4" height="76" fill="#E5E5E5" />
<rect x="120" y="338" width="4" height="76" fill="#E5E5E5" />
<rect x="124" y="338" width="12" height="4" fill="#D4D4D4" />
<rect x="136" y="338" width="12" height="4" fill="#7C7C7C" />
<rect x="148" y="338" width="12" height="4" fill="#D4D4D4" />
<rect x="160" y="338" width="4" height="24" fill="#E5E5E5" />
<rect x="252" y="338" width="4" height="24" fill="#E5E5E5" />
<rect x="268" y="338" width="4" height="8" fill="#D4D4D4" />
<rect x="272" y="338" width="4" height="4" fill="#7C7C7C" />
<rect x="276" y="338" width="4" height="8" fill="#D4D4D4" />
<rect x="292" y="338" width="4" height="76" fill="#E5E5E5" />
<rect x="316" y="338" width="4" height="76" fill="#E5E5E5" />
<rect x="320" y="338" width="4" height="16" fill="#C9C9C9" />
<rect x="324" y="338" width="68" height="8" fill="#D8D8D8" />
<rect x="88" y="342" width="4" height="12" fill="#B4B4B4" />
<rect x="124" y="342" width="8" height="64" fill="#E5E5E5" />
<rect x="132" y="342" width="20" height="4" fill="#D4D4D4" />
<rect x="152" y="342" width="8" height="24" fill="#E5E5E5" />
<rect x="188" y="342" width="4" height="4" fill="#E5E5E5" />
<rect x="192" y="342" width="4" height="8" fill="#B4B4B4" />
<rect x="196" y="342" width="28" height="4" fill="#C9C9C9" />
<rect x="224" y="342" width="4" height="4" fill="#E5E5E5" />
<rect x="256" y="342" width="8" height="24" fill="#E5E5E5" />
<rect x="272" y="342" width="4" height="4" fill="#D4D4D4" />
<rect x="284" y="342" width="8" height="64" fill="#E5E5E5" />
<rect x="80" y="346" width="4" height="16" fill="#818181" />
<rect x="84" y="346" width="4" height="8" fill="#9C9C9C" />
<rect x="132" y="346" width="20" height="32" fill="#E5E5E5" />
<rect x="172" y="346" width="4" height="4" fill="#E5E5E5" />
<rect x="176" y="346" width="4" height="4" fill="#D4D4D4" />
<rect x="180" y="346" width="12" height="4" fill="#9C9C9C" />
<rect x="196" y="346" width="28" height="4" fill="#B4B4B4" />
<rect x="224" y="346" width="12" height="4" fill="#C9C9C9" />
<rect x="236" y="346" width="4" height="4" fill="#D4D4D4" />
<rect x="240" y="346" width="8" height="4" fill="#E5E5E5" />
<rect x="264" y="346" width="20" height="32" fill="#E5E5E5" />
<rect x="324" y="346" width="48" height="8" fill="#D8D8D8" />
<rect x="372" y="346" width="52" height="68" fill="#B0B0B0" />
<rect x="424" y="346" width="8" height="76" fill="#D8D8D8" />
<rect x="172" y="350" width="4" height="4" fill="#D4D4D4" />
<rect x="176" y="350" width="4" height="8" fill="#9C9C9C" />
<rect x="180" y="350" width="16" height="4" fill="#818181" />
<rect x="196" y="350" width="16" height="4" fill="#9C9C9C" />
<rect x="212" y="350" width="12" height="4" fill="#A8A8A8" />
<rect x="224" y="350" width="12" height="4" fill="#B4B4B4" />
<rect x="236" y="350" width="4" height="4" fill="#C9C9C9" />
<rect x="240" y="350" width="4" height="4" fill="#D4D4D4" />
<rect x="244" y="350" width="4" height="4" fill="#E5E5E5" />
<rect x="84" y="354" width="4" height="56" fill="#B4B4B4" />
<rect x="88" y="354" width="4" height="56" fill="#C9C9C9" />
<rect x="92" y="354" width="4" height="56" fill="#E5E5E5" />
<rect x="168" y="354" width="4" height="4" fill="#D4D4D4" />
<rect x="172" y="354" width="4" height="4" fill="#9C9C9C" />
<rect x="208" y="354" width="4" height="80" fill="#6F6F6F" />
<rect x="212" y="354" width="12" height="4" fill="#9C9C9C" />
<rect x="224" y="354" width="12" height="4" fill="#A8A8A8" />
<rect x="236" y="354" width="4" height="4" fill="#B4B4B4" />
<rect x="240" y="354" width="4" height="4" fill="#C9C9C9" />
<rect x="244" y="354" width="4" height="4" fill="#D4D4D4" />
<rect x="320" y="354" width="4" height="56" fill="#E5E5E5" />
<rect x="324" y="354" width="4" height="56" fill="#C9C9C9" />
<rect x="328" y="354" width="44" height="68" fill="#D8D8D8" />
<rect x="164" y="358" width="4" height="8" fill="#D4D4D4" />
<rect x="168" y="358" width="4" height="8" fill="#9C9C9C" />
<rect x="212" y="358" width="4" height="76" fill="#9A9A9A" />
<rect x="216" y="358" width="4" height="72" fill="#A9A9A9" />
<rect x="220" y="358" width="4" height="68" fill="#C7C7C7" />
<rect x="224" y="358" width="4" height="4" fill="#818181" />
<rect x="228" y="358" width="8" height="4" fill="#9C9C9C" />
<rect x="236" y="358" width="4" height="8" fill="#A8A8A8" />
<rect x="240" y="358" width="4" height="8" fill="#B4B4B4" />
<rect x="244" y="358" width="4" height="8" fill="#C9C9C9" />
<rect x="248" y="358" width="4" height="8" fill="#D4D4D4" />
<rect x="76" y="362" width="4" height="44" fill="#818181" />
<rect x="80" y="362" width="4" height="44" fill="#9C9C9C" />
<rect x="160" y="362" width="4" height="16" fill="#D4D4D4" />
<rect x="224" y="362" width="4" height="60" fill="#D8D8D8" />
<rect x="228" y="362" width="4" height="4" fill="#818181" />
<rect x="232" y="362" width="4" height="4" fill="#9C9C9C" />
<rect x="252" y="362" width="4" height="16" fill="#D4D4D4" />
<rect x="152" y="366" width="4" height="4" fill="#E5E5E5" />
<rect x="156" y="366" width="4" height="24" fill="#D4D4D4" />
<rect x="164" y="366" width="4" height="12" fill="#9C9C9C" />
<rect x="228" y="366" width="4" height="56" fill="#D8D8D8" />
<rect x="232" y="366" width="4" height="8" fill="#818181" />
<rect x="236" y="366" width="4" height="8" fill="#9C9C9C" />
<rect x="240" y="366" width="4" height="12" fill="#A8A8A8" />
<rect x="244" y="366" width="4" height="12" fill="#B4B4B4" />
<rect x="248" y="366" width="4" height="12" fill="#C9C9C9" />
<rect x="256" y="366" width="4" height="24" fill="#D4D4D4" />
<rect x="260" y="366" width="4" height="4" fill="#E5E5E5" />
<rect x="152" y="370" width="4" height="32" fill="#D4D4D4" />
<rect x="260" y="370" width="4" height="32" fill="#D4D4D4" />
<rect x="232" y="374" width="4" height="48" fill="#D8D8D8" />
<rect x="236" y="374" width="4" height="12" fill="#818181" />
<rect x="132" y="378" width="16" height="8" fill="#E5E5E5" />
<rect x="148" y="378" width="4" height="28" fill="#D4D4D4" />
<rect x="160" y="378" width="4" height="12" fill="#9C9C9C" />
<rect x="240" y="378" width="4" height="12" fill="#9C9C9C" />
<rect x="244" y="378" width="4" height="12" fill="#A8A8A8" />
<rect x="248" y="378" width="4" height="12" fill="#B4B4B4" />
<rect x="252" y="378" width="4" height="12" fill="#C9C9C9" />
<rect x="264" y="378" width="4" height="28" fill="#D4D4D4" />
<rect x="268" y="378" width="16" height="8" fill="#E5E5E5" />
<rect x="132" y="386" width="12" height="4" fill="#E5E5E5" />
<rect x="144" y="386" width="4" height="24" fill="#D4D4D4" />
<rect x="236" y="386" width="4" height="36" fill="#D8D8D8" />
<rect x="268" y="386" width="4" height="24" fill="#D4D4D4" />
<rect x="272" y="386" width="12" height="4" fill="#E5E5E5" />
<rect x="132" y="390" width="8" height="8" fill="#E5E5E5" />
<rect x="140" y="390" width="4" height="24" fill="#D4D4D4" />
<rect x="156" y="390" width="4" height="12" fill="#9C9C9C" />
<rect x="240" y="390" width="4" height="8" fill="#818181" />
<rect x="244" y="390" width="4" height="12" fill="#9C9C9C" />
<rect x="248" y="390" width="4" height="12" fill="#A8A8A8" />
<rect x="252" y="390" width="4" height="12" fill="#B4B4B4" />
<rect x="256" y="390" width="4" height="12" fill="#C9C9C9" />
<rect x="272" y="390" width="4" height="24" fill="#D4D4D4" />
<rect x="276" y="390" width="8" height="8" fill="#E5E5E5" />
<rect x="132" y="398" width="4" height="4" fill="#E5E5E5" />
<rect x="136" y="398" width="4" height="20" fill="#D4D4D4" />
<rect x="240" y="398" width="4" height="24" fill="#D8D8D8" />
<rect x="276" y="398" width="4" height="20" fill="#D4D4D4" />
<rect x="280" y="398" width="4" height="4" fill="#E5E5E5" />
<rect x="132" y="402" width="4" height="20" fill="#D4D4D4" />
<rect x="152" y="402" width="4" height="4" fill="#9C9C9C" />
<rect x="244" y="402" width="4" height="4" fill="#818181" />
<rect x="248" y="402" width="4" height="4" fill="#9C9C9C" />
<rect x="252" y="402" width="4" height="4" fill="#A8A8A8" />
<rect x="256" y="402" width="4" height="4" fill="#B4B4B4" />
<rect x="260" y="402" width="4" height="4" fill="#C9C9C9" />
<rect x="280" y="402" width="4" height="20" fill="#D4D4D4" />
<rect x="76" y="406" width="4" height="12" fill="#5E5E5E" />
<rect x="80" y="406" width="4" height="12" fill="#818181" />
<rect x="124" y="406" width="4" height="4" fill="#E5E5E5" />
<rect x="128" y="406" width="4" height="16" fill="#D4D4D4" />
<rect x="148" y="406" width="4" height="4" fill="#9C9C9C" />
<rect x="244" y="406" width="4" height="4" fill="#727272" />
<rect x="248" y="406" width="4" height="4" fill="#818181" />
<rect x="252" y="406" width="4" height="4" fill="#9C9C9C" />
<rect x="256" y="406" width="4" height="4" fill="#A8A8A8" />
<rect x="260" y="406" width="4" height="4" fill="#B4B4B4" />
<rect x="264" y="406" width="4" height="4" fill="#C9C9C9" />
<rect x="284" y="406" width="4" height="16" fill="#D4D4D4" />
<rect x="288" y="406" width="4" height="4" fill="#E5E5E5" />
<rect x="84" y="410" width="4" height="4" fill="#9C9C9C" />
<rect x="88" y="410" width="4" height="4" fill="#B4B4B4" />
<rect x="92" y="410" width="4" height="4" fill="#C9C9C9" />
<rect x="124" y="410" width="4" height="12" fill="#D4D4D4" />
<rect x="144" y="410" width="4" height="4" fill="#9C9C9C" />
<rect x="244" y="410" width="4" height="12" fill="#D8D8D8" />
<rect x="248" y="410" width="4" height="4" fill="#727272" />
<rect x="252" y="410" width="4" height="4" fill="#818181" />
<rect x="256" y="410" width="4" height="4" fill="#9C9C9C" />
<rect x="260" y="410" width="4" height="4" fill="#A8A8A8" />
<rect x="264" y="410" width="4" height="4" fill="#B4B4B4" />
<rect x="268" y="410" width="4" height="4" fill="#C9C9C9" />
<rect x="288" y="410" width="4" height="12" fill="#D4D4D4" />
<rect x="320" y="410" width="4" height="4" fill="#C9C9C9" />
<rect x="324" y="410" width="4" height="12" fill="#D8D8D8" />
<rect x="84" y="414" width="4" height="8" fill="#818181" />
<rect x="88" y="414" width="4" height="4" fill="#9C9C9C" />
<rect x="92" y="414" width="4" height="4" fill="#B4B4B4" />
<rect x="96" y="414" width="4" height="4" fill="#C9C9C9" />
<rect x="120" y="414" width="4" height="8" fill="#D4D4D4" />
<rect x="140" y="414" width="4" height="4" fill="#9C9C9C" />
<rect x="248" y="414" width="4" height="8" fill="#D8D8D8" />
<rect x="252" y="414" width="4" height="4" fill="#727272" />
<rect x="256" y="414" width="4" height="4" fill="#818181" />
<rect x="260" y="414" width="4" height="4" fill="#9C9C9C" />
<rect x="264" y="414" width="4" height="4" fill="#A8A8A8" />
<rect x="268" y="414" width="4" height="4" fill="#B4B4B4" />
<rect x="272" y="414" width="4" height="4" fill="#C9C9C9" />
<rect x="292" y="414" width="4" height="8" fill="#D4D4D4" />
<rect x="316" y="414" width="4" height="4" fill="#C9C9C9" />
<rect x="320" y="414" width="4" height="8" fill="#D8D8D8" />
<rect x="372" y="414" width="52" height="8" fill="#D8D8D8" />
<rect x="80" y="418" width="4" height="4" fill="#5E5E5E" />
<rect x="88" y="418" width="4" height="8" fill="#818181" />
<rect x="92" y="418" width="4" height="4" fill="#9C9C9C" />
<rect x="96" y="418" width="4" height="4" fill="#B4B4B4" />
<rect x="100" y="418" width="8" height="4" fill="#C9C9C9" />
<rect x="116" y="418" width="4" height="4" fill="#D4D4D4" />
<rect x="136" y="418" width="4" height="4" fill="#9C9C9C" />
<rect x="252" y="418" width="4" height="4" fill="#D8D8D8" />
<rect x="256" y="418" width="4" height="4" fill="#727272" />
<rect x="260" y="418" width="4" height="4" fill="#818181" />
<rect x="264" y="418" width="4" height="4" fill="#9C9C9C" />
<rect x="268" y="418" width="4" height="4" fill="#A8A8A8" />
<rect x="272" y="418" width="4" height="4" fill="#B4B4B4" />
<rect x="276" y="418" width="4" height="4" fill="#C9C9C9" />
<rect x="296" y="418" width="4" height="4" fill="#D4D4D4" />
<rect x="308" y="418" width="8" height="4" fill="#C9C9C9" />
<rect x="316" y="418" width="4" height="4" fill="#D8D8D8" />
<rect x="84" y="422" width="4" height="4" fill="#5E5E5E" />
<rect x="92" y="422" width="4" height="4" fill="#818181" />
<rect x="96" y="422" width="4" height="4" fill="#9C9C9C" />
<rect x="100" y="422" width="8" height="4" fill="#B4B4B4" />
<rect x="108" y="422" width="20" height="4" fill="#C9C9C9" />
<rect x="128" y="422" width="8" height="4" fill="#9C9C9C" />
<rect x="224" y="422" width="36" height="4" fill="#C7C7C7" />
<rect x="260" y="422" width="4" height="4" fill="#727272" />
<rect x="264" y="422" width="4" height="4" fill="#818181" />
<rect x="268" y="422" width="4" height="4" fill="#9C9C9C" />
<rect x="272" y="422" width="4" height="4" fill="#A8A8A8" />
<rect x="276" y="422" width="4" height="4" fill="#B4B4B4" />
<rect x="280" y="422" width="28" height="4" fill="#C9C9C9" />
<rect x="308" y="422" width="124" height="4" fill="#C7C7C7" />
<rect x="432" y="422" width="4" height="4" fill="#ABABAB" />
<rect x="88" y="426" width="8" height="4" fill="#5E5E5E" />
<rect x="96" y="426" width="4" height="4" fill="#818181" />
<rect x="100" y="426" width="12" height="4" fill="#9C9C9C" />
<rect x="112" y="426" width="12" height="4" fill="#B4B4B4" />
<rect x="124" y="426" width="4" height="4" fill="#9C9C9C" />
<rect x="220" y="426" width="44" height="4" fill="#A9A9A9" />
<rect x="264" y="426" width="4" height="4" fill="#727272" />
<rect x="268" y="426" width="4" height="4" fill="#818181" />
<rect x="272" y="426" width="4" height="4" fill="#9C9C9C" />
<rect x="276" y="426" width="4" height="4" fill="#A8A8A8" />
<rect x="280" y="426" width="24" height="4" fill="#B4B4B4" />
<rect x="304" y="426" width="124" height="4" fill="#A9A9A9" />
<rect x="428" y="426" width="4" height="4" fill="#9A9A9A" />
<rect x="96" y="430" width="4" height="4" fill="#5E5E5E" />
<rect x="100" y="430" width="16" height="4" fill="#818181" />
<rect x="116" y="430" width="4" height="4" fill="#9C9C9C" />
<rect x="120" y="430" width="4" height="4" fill="#818181" />
<rect x="216" y="430" width="52" height="4" fill="#9A9A9A" />
<rect x="268" y="430" width="4" height="4" fill="#727272" />
<rect x="272" y="430" width="24" height="4" fill="#818181" />
<rect x="296" y="430" width="128" height="4" fill="#9A9A9A" />
<rect x="424" y="430" width="4" height="4" fill="#6F6F6F" />
</svg>