<?xml version="1.0" encoding="UTF-8" ?>
<svg version="1.1" width="192" height="192" xmlns="http://www.w3.org/2000/svg" shape-rendering="crispEdges">
<rect x="78" y="8" width="2" height="2" fill="#BFBFBF" />
<rect x="80" y="8" width="106" height="2" fill="#C7C7C7" />
<rect x="76" y="10" width="2" height="2" fill="#9A9A9A" />
<rect x="78" y="10" width="2" height="84" fill="#C7C7C7" />
<rect x="80" y="10" width="104" height="24" fill="#D8D8D8" />
<rect x="184" y="10" width="2" height="169" fill="#C7C7C7" />
<rect x="74" y="12" width="2" height="2" fill="#6F6F6F" />
<rect x="76" y="12" width="2" height="82" fill="#A9A9A9" />
<rect x="72" y="14" width="2" height="2" fill="#5E5E5E" />
<rect x="74" y="14" width="2" height="80" fill="#9A9A9A" />
<rect x="72" y="16" width="2" height="78" fill="#6F6F6F" />
<rect x="80" y="34" width="10" height="60" fill="#D8D8D8" />
<rect x="90" y="34" width="70" height="8" fill="#C7C7C7" />
<rect x="160" y="34" width="24" height="24" fill="#D8D8D8" />
<rect x="90" y="42" width="70" height="4" fill="#D8D8D8" />
<rect x="90" y="46" width="48" height="8" fill="#C7C7C7" />
<rect x="138" y="46" width="22" height="12" fill="#D8D8D8" />
<rect x="90" y="54" width="48" height="4" fill="#D8D8D8" />
<rect x="90" y="58" width="74" height="8" fill="#C7C7C7" />
<rect x="164" y="58" width="20" height="83" fill="#D8D8D8" />
<rect x="90" y="66" width="74" height="26" fill="#D8D8D8" />
<rect x="30" y="92" width="8" height="2" fill="#8B8B8B" />
<rect x="90" y="92" width="16" height="2" fill="#D8D8D8" />
<rect x="106" y="92" width="8" height="2" fill="#B4B4B4" />
<rect x="114" y="92" width="50" height="2" fill="#D8D8D8" />
<rect x="28" y="94" width="2" height="2" fill="#8B8B8B" />
<rect x="30" y="94" width="8" height="7" fill="#D8D8D8" />
<rect x="38" y="94" width="4" height="2" fill="#8B8B8B" />
<rect x="50" y="94" width="44" height="2" fill="#B4B4B4" />
<rect x="94" y="94" width="8" height="2" fill="#D8D8D8" />
<rect x="102" y="94" width="4" height="2" fill="#B4B4B4" />
<rect x="106" y="94" width="8" height="7" fill="#D8D8D8" />
<rect x="114" y="94" width="2" height="2" fill="#B4B4B4" />
<rect x="116" y="94" width="48" height="2" fill="#D8D8D8" />
<rect x="24" y="96" width="2" height="3" fill="#818181" />
<rect x="26" y="96" width="2" height="7" fill="#8B8B8B" />
<rect x="28" y="96" width="2" height="7" fill="#D8D8D8" />
<rect x="38" y="96" width="4" height="3" fill="#D8D8D8" />
<rect x="42" y="96" width="2" height="3" fill="#C9C9C9" />
<rect x="44" y="96" width="8" height="3" fill="#B4B4B4" />
<rect x="52" y="96" width="40" height="7" fill="#D4D4D4" />
<rect x="92" y="96" width="10" height="3" fill="#B4B4B4" />
<rect x="102" y="96" width="4" height="3" fill="#D8D8D8" />
<rect x="114" y="96" width="2" height="7" fill="#D8D8D8" />
<rect x="116" y="96" width="2" height="7" fill="#B4B4B4" />
<rect x="118" y="96" width="46" height="7" fill="#D8D8D8" />
<rect x="22" y="99" width="2" height="2" fill="#818181" />
<rect x="24" y="99" width="2" height="4" fill="#9B9B9B" />
<rect x="38" y="99" width="2" height="2" fill="#D8D8D8" />
<rect x="40" y="99" width="6" height="2" fill="#B4B4B4" />
<rect x="46" y="99" width="6" height="2" fill="#D4D4D4" />
<rect x="92" y="99" width="6" height="2" fill="#D4D4D4" />
<rect x="98" y="99" width="6" height="2" fill="#B4B4B4" />
<rect x="104" y="99" width="2" height="2" fill="#D8D8D8" />
<rect x="20" y="101" width="2" height="6" fill="#818181" />
<rect x="22" y="101" width="2" height="6" fill="#9B9B9B" />
<rect x="30" y="101" width="2" height="2" fill="#D8D8D8" />
<rect x="32" y="101" width="8" height="2" fill="#B4B4B4" />
<rect x="40" y="101" width="8" height="10" fill="#E5E5E5" />
<rect x="48" y="101" width="4" height="2" fill="#D4D4D4" />
<rect x="92" y="101" width="4" height="2" fill="#D4D4D4" />
<rect x="96" y="101" width="8" height="10" fill="#E5E5E5" />
<rect x="104" y="101" width="8" height="2" fill="#B4B4B4" />
<rect x="112" y="101" width="2" height="2" fill="#D8D8D8" />
<rect x="24" y="103" width="2" height="4" fill="#8B8B8B" />
<rect x="26" y="103" width="2" height="2" fill="#D8D8D8" />
<rect x="28" y="103" width="4" height="2" fill="#B4B4B4" />
<rect x="32" y="103" width="8" height="8" fill="#E5E5E5" />
<rect x="48" y="103" width="12" height="12" fill="#E5E5E5" />
<rect x="60" y="103" width="24" height="2" fill="#D4D4D4" />
<rect x="84" y="103" width="12" height="12" fill="#E5E5E5" />
<rect x="104" y="103" width="6" height="8" fill="#E5E5E5" />
<rect x="110" y="103" width="6" height="2" fill="#B4B4B4" />
<rect x="116" y="103" width="2" height="2" fill="#D8D8D8" />
<rect x="118" y="103" width="2" height="6" fill="#B4B4B4" />
<rect x="120" y="103" width="44" height="6" fill="#D8D8D8" />
<rect x="26" y="105" width="2" height="4" fill="#C9C9C9" />
<rect x="28" y="105" width="4" height="8" fill="#E5E5E5" />
<rect x="60" y="105" width="24" height="10" fill="#E5E5E5" />
<rect x="110" y="105" width="6" height="8" fill="#E5E5E5" />
<rect x="116" y="105" width="2" height="2" fill="#B4B4B4" />
<rect x="18" y="107" width="2" height="4" fill="#818181" />
<rect x="20" y="107" width="4" height="2" fill="#9C9C9C" />
<rect x="24" y="107" width="2" height="2" fill="#B4B4B4" />
<rect x="116" y="107" width="2" height="2" fill="#C9C9C9" />
<rect x="20" y="109" width="4" height="2" fill="#B4B4B4" />
<rect x="24" y="109" width="2" height="2" fill="#C9C9C9" />
<rect x="26" y="109" width="2" height="8" fill="#E5E5E5" />
<rect x="116" y="109" width="2" height="8" fill="#E5E5E5" />
<rect x="118" y="109" width="4" height="2" fill="#C9C9C9" />
<rect x="122" y="109" width="42" height="2" fill="#D8D8D8" />
<rect x="18" y="111" width="2" height="2" fill="#9C9C9C" />
<rect x="20" y="111" width="2" height="6" fill="#C9C9C9" />
<rect x="22" y="111" width="4" height="10" fill="#E5E5E5" />
<rect x="32" y="111" width="2" height="2" fill="#E5E5E5" />
<rect x="34" y="111" width="10" height="2" fill="#D4D4D4" />
<rect x="44" y="111" width="4" height="2" fill="#E5E5E5" />
<rect x="96" y="111" width="4" height="2" fill="#E5E5E5" />
<rect x="100" y="111" width="10" height="2" fill="#D4D4D4" />
<rect x="118" y="111" width="4" height="10" fill="#E5E5E5" />
<rect x="122" y="111" width="2" height="6" fill="#C9C9C9" />
<rect x="124" y="111" width="40" height="6" fill="#D8D8D8" />
<rect x="16" y="113" width="2" height="2" fill="#818181" />
<rect x="18" y="113" width="2" height="4" fill="#B4B4B4" />
<rect x="28" y="113" width="2" height="2" fill="#E5E5E5" />
<rect x="30" y="113" width="6" height="2" fill="#D4D4D4" />
<rect x="36" y="113" width="6" height="2" fill="#969696" />
<rect x="42" y="113" width="6" height="2" fill="#D4D4D4" />
<rect x="96" y="113" width="8" height="2" fill="#D4D4D4" />
<rect x="104" y="113" width="2" height="2" fill="#969696" />
<rect x="106" y="113" width="8" height="2" fill="#D4D4D4" />
<rect x="114" y="113" width="2" height="2" fill="#E5E5E5" />
<rect x="14" y="115" width="2" height="6" fill="#818181" />
<rect x="16" y="115" width="2" height="4" fill="#9C9C9C" />
<rect x="28" y="115" width="6" height="6" fill="#D4D4D4" />
<rect x="34" y="115" width="2" height="6" fill="#7C7C7C" />
<rect x="36" y="115" width="6" height="6" fill="#8B8B8B" />
<rect x="42" y="115" width="2" height="6" fill="#969696" />
<rect x="44" y="115" width="6" height="6" fill="#D4D4D4" />
<rect x="50" y="115" width="20" height="2" fill="#E5E5E5" />
<rect x="70" y="115" width="4" height="2" fill="#969696" />
<rect x="74" y="115" width="20" height="2" fill="#E5E5E5" />
<rect x="94" y="115" width="8" height="2" fill="#D4D4D4" />
<rect x="102" y="115" width="4" height="4" fill="#8B8B8B" />
<rect x="106" y="115" width="2" height="2" fill="#969696" />
<rect x="108" y="115" width="8" height="2" fill="#D4D4D4" />
<rect x="18" y="117" width="2" height="12" fill="#C9C9C9" />
<rect x="20" y="117" width="2" height="60" fill="#E5E5E5" />
<rect x="26" y="117" width="2" height="6" fill="#D4D4D4" />
<rect x="50" y="117" width="2" height="6" fill="#D4D4D4" />
<rect x="52" y="117" width="16" height="4" fill="#E5E5E5" />
<rect x="68" y="117" width="2" height="4" fill="#7C7C7C" />
<rect x="70" y="117" width="4" height="4" fill="#8B8B8B" />
<rect x="74" y="117" width="2" height="4" fill="#969696" />
<rect x="76" y="117" width="16" height="4" fill="#E5E5E5" />
<rect x="92" y="117" width="8" height="4" fill="#D4D4D4" />
<rect x="100" y="117" width="2" height="2" fill="#7C7C7C" />
<rect x="106" y="117" width="2" height="4" fill="#8B8B8B" />
<rect x="108" y="117" width="2" height="2" fill="#969696" />
<rect x="110" y="117" width="8" height="4" fill="#D4D4D4" />
<rect x="122" y="117" width="2" height="60" fill="#E5E5E5" />
<rect x="124" y="117" width="2" height="12" fill="#C9C9C9" />
<rect x="126" y="117" width="38" height="12" fill="#D8D8D8" />
<rect x="16" y="119" width="2" height="10" fill="#B4B4B4" />
<rect x="100" y="119" width="2" height="6" fill="#D4D4D4" />
<rect x="102" y="119" width="2" height="2" fill="#7C7C7C" />
<rect x="104" y="119" width="2" height="2" fill="#8B8B8B" />
<rect x="108" y="119" width="2" height="6" fill="#D4D4D4" />
<rect x="12" y="121" width="2" height="12" fill="#818181" />
<rect x="14" y="121" width="2" height="10" fill="#9C9C9C" />
<rect x="22" y="121" width="2" height="58" fill="#E5E5E5" />
<rect x="24" y="121" width="2" height="10" fill="#D4D4D4" />
<rect x="28" y="121" width="6" height="2" fill="#969696" />
<rect x="34" y="121" width="2" height="2" fill="#D4D4D4" />
<rect x="36" y="121" width="6" height="2" fill="#7C7C7C" />
<rect x="42" y="121" width="2" height="2" fill="#D4D4D4" />
<rect x="44" y="121" width="6" height="2" fill="#969696" />
<rect x="52" y="121" width="2" height="10" fill="#D4D4D4" />
<rect x="54" y="121" width="16" height="8" fill="#E5E5E5" />
<rect x="70" y="121" width="4" height="2" fill="#7C7C7C" />
<rect x="74" y="121" width="16" height="8" fill="#E5E5E5" />
<rect x="90" y="121" width="6" height="2" fill="#D4D4D4" />
<rect x="96" y="121" width="2" height="2" fill="#969696" />
<rect x="98" y="121" width="2" height="2" fill="#D4D4D4" />
<rect x="102" y="121" width="2" height="10" fill="#D4D4D4" />
<rect x="104" y="121" width="2" height="2" fill="#7C7C7C" />
<rect x="106" y="121" width="2" height="10" fill="#D4D4D4" />
<rect x="110" y="121" width="2" height="2" fill="#D4D4D4" />
<rect x="112" y="121" width="2" height="2" fill="#969696" />
<rect x="114" y="121" width="6" height="2" fill="#D4D4D4" />
<rect x="120" y="121" width="2" height="58" fill="#E5E5E5" />
<rect x="26" y="123" width="2" height="6" fill="#7C7C7C" />
<rect x="28" y="123" width="6" height="6" fill="#8B8B8B" />
<rect x="34" y="123" width="2" height="6" fill="#969696" />
<rect x="36" y="123" width="6" height="6" fill="#D4D4D4" />
<rect x="42" y="123" width="2" height="6" fill="#7C7C7C" />
<rect x="44" y="123" width="6" height="6" fill="#8B8B8B" />
<rect x="50" y="123" width="2" height="6" fill="#969696" />
<rect x="70" y="123" width="4" height="16" fill="#E5E5E5" />
<rect x="90" y="123" width="4" height="2" fill="#D4D4D4" />
<rect x="94" y="123" width="4" height="4" fill="#8B8B8B" />
<rect x="98" y="123" width="2" height="2" fill="#969696" />
<rect x="104" y="123" width="2" height="6" fill="#D4D4D4" />
<rect x="110" y="123" width="4" height="4" fill="#8B8B8B" />
<rect x="114" y="123" width="2" height="2" fill="#969696" />
<rect x="116" y="123" width="4" height="2" fill="#D4D4D4" />
<rect x="90" y="125" width="2" height="6" fill="#D4D4D4" />
<rect x="92" y="125" width="2" height="2" fill="#7C7C7C" />
<rect x="98" y="125" width="2" height="4" fill="#8B8B8B" />
<rect x="100" y="125" width="2" height="2" fill="#969696" />
<rect x="108" y="125" width="2" height="2" fill="#7C7C7C" />
<rect x="114" y="125" width="2" height="4" fill="#8B8B8B" />
<rect x="116" y="125" width="2" height="2" fill="#969696" />
<rect x="118" y="125" width="2" height="6" fill="#D4D4D4" />
<rect x="92" y="127" width="2" height="8" fill="#D4D4D4" />
<rect x="94" y="127" width="2" height="2" fill="#7C7C7C" />
<rect x="96" y="127" width="2" height="2" fill="#8B8B8B" />
<rect x="100" y="127" width="2" height="6" fill="#D4D4D4" />
<rect x="108" y="127" width="2" height="6" fill="#D4D4D4" />
<rect x="110" y="127" width="2" height="2" fill="#7C7C7C" />
<rect x="112" y="127" width="2" height="2" fill="#8B8B8B" />
<rect x="116" y="127" width="2" height="8" fill="#D4D4D4" />
<rect x="16" y="129" width="2" height="8" fill="#C9C9C9" />
<rect x="18" y="129" width="2" height="48" fill="#E5E5E5" />
<rect x="26" y="129" width="2" height="6" fill="#D4D4D4" />
<rect x="28" y="129" width="6" height="2" fill="#7C7C7C" />
<rect x="34" y="129" width="2" height="2" fill="#D4D4D4" />
<rect x="36" y="129" width="6" height="2" fill="#969696" />
<rect x="42" y="129" width="2" height="2" fill="#D4D4D4" />
<rect x="44" y="129" width="6" height="2" fill="#7C7C7C" />
<rect x="50" y="129" width="2" height="6" fill="#D4D4D4" />
<rect x="54" y="129" width="6" height="12" fill="#E5E5E5" />
<rect x="60" y="129" width="2" height="2" fill="#7C7C7C" />
<rect x="62" y="129" width="2" height="2" fill="#8B8B8B" />
<rect x="64" y="129" width="2" height="2" fill="#969696" />
<rect x="66" y="129" width="4" height="2" fill="#E5E5E5" />
<rect x="74" y="129" width="2" height="2" fill="#7C7C7C" />
<rect x="76" y="129" width="2" height="2" fill="#8B8B8B" />
<rect x="78" y="129" width="2" height="2" fill="#969696" />
<rect x="80" y="129" width="10" height="2" fill="#E5E5E5" />
<rect x="94" y="129" width="2" height="8" fill="#D4D4D4" />
<rect x="96" y="129" width="2" height="2" fill="#7C7C7C" />
<rect x="98" y="129" width="2" height="10" fill="#D4D4D4" />
<rect x="104" y="129" width="2" height="2" fill="#969696" />
<rect x="110" y="129" width="2" height="10" fill="#D4D4D4" />
<rect x="112" y="129" width="2" height="2" fill="#7C7C7C" />
<rect x="114" y="129" width="2" height="8" fill="#D4D4D4" />
<rect x="124" y="129" width="2" height="48" fill="#E5E5E5" />
<rect x="126" y="129" width="2" height="8" fill="#C9C9C9" />
<rect x="128" y="129" width="36" height="8" fill="#D8D8D8" />
<rect x="14" y="131" width="2" height="6" fill="#B4B4B4" />
<rect x="24" y="131" width="2" height="48" fill="#E5E5E5" />
<rect x="28" y="131" width="6" height="6" fill="#D4D4D4" />
<rect x="34" y="131" width="2" height="6" fill="#7C7C7C" />
<rect x="36" y="131" width="6" height="6" fill="#8B8B8B" />
<rect x="42" y="131" width="2" height="6" fill="#969696" />
<rect x="44" y="131" width="6" height="6" fill="#D4D4D4" />
<rect x="52" y="131" width="2" height="14" fill="#E5E5E5" />
<rect x="60" y="131" width="2" height="10" fill="#E5E5E5" />
<rect x="62" y="131" width="2" height="2" fill="#7C7C7C" />
<rect x="64" y="131" width="2" height="2" fill="#8B8B8B" />
<rect x="66" y="131" width="2" height="2" fill="#969696" />
<rect x="68" y="131" width="2" height="8" fill="#E5E5E5" />
<rect x="74" y="131" width="2" height="8" fill="#E5E5E5" />
<rect x="76" y="131" width="2" height="2" fill="#7C7C7C" />
<rect x="78" y="131" width="2" height="2" fill="#8B8B8B" />
<rect x="80" y="131" width="2" height="2" fill="#969696" />
<rect x="82" y="131" width="10" height="10" fill="#E5E5E5" />
<rect x="96" y="131" width="2" height="8" fill="#D4D4D4" />
<rect x="102" y="131" width="4" height="4" fill="#8B8B8B" />
<rect x="106" y="131" width="2" height="2" fill="#969696" />
<rect x="112" y="131" width="2" height="8" fill="#D4D4D4" />
<rect x="118" y="131" width="2" height="48" fill="#E5E5E5" />
<rect x="10" y="133" width="2" height="8" fill="#818181" />
<rect x="12" y="133" width="2" height="6" fill="#9C9C9C" />
<rect x="62" y="133" width="6" height="6" fill="#E5E5E5" />
<rect x="76" y="133" width="6" height="6" fill="#E5E5E5" />
<rect x="100" y="133" width="2" height="2" fill="#7C7C7C" />
<rect x="106" y="133" width="2" height="4" fill="#8B8B8B" />
<rect x="108" y="133" width="2" height="2" fill="#969696" />
<rect x="26" y="135" width="2" height="42" fill="#E5E5E5" />
<rect x="50" y="135" width="2" height="12" fill="#E5E5E5" />
<rect x="92" y="135" width="2" height="12" fill="#E5E5E5" />
<rect x="100" y="135" width="2" height="6" fill="#D4D4D4" />
<rect x="102" y="135" width="2" height="2" fill="#7C7C7C" />
<rect x="104" y="135" width="2" height="2" fill="#8B8B8B" />
<rect x="108" y="135" width="2" height="6" fill="#D4D4D4" />
<rect x="116" y="135" width="2" height="42" fill="#E5E5E5" />
<rect x="14" y="137" width="2" height="8" fill="#C9C9C9" />
<rect x="16" y="137" width="2" height="38" fill="#E5E5E5" />
<rect x="28" y="137" width="2" height="38" fill="#E5E5E5" />
<rect x="30" y="137" width="6" height="2" fill="#D4D4D4" />
<rect x="36" y="137" width="6" height="2" fill="#7C7C7C" />
<rect x="42" y="137" width="6" height="2" fill="#D4D4D4" />
<rect x="48" y="137" width="2" height="12" fill="#E5E5E5" />
<rect x="94" y="137" width="2" height="12" fill="#E5E5E5" />
<rect x="102" y="137" width="2" height="4" fill="#D4D4D4" />
<rect x="104" y="137" width="2" height="2" fill="#7C7C7C" />
<rect x="106" y="137" width="2" height="4" fill="#D4D4D4" />
<rect x="114" y="137" width="2" height="38" fill="#E5E5E5" />
<rect x="126" y="137" width="2" height="38" fill="#E5E5E5" />
<rect x="128" y="137" width="2" height="8" fill="#C9C9C9" />
<rect x="130" y="137" width="34" height="4" fill="#D8D8D8" />
<rect x="12" y="139" width="2" height="6" fill="#B4B4B4" />
<rect x="30" y="139" width="4" height="32" fill="#E5E5E5" />
<rect x="34" y="139" width="10" height="2" fill="#D4D4D4" />
<rect x="44" y="139" width="4" height="12" fill="#E5E5E5" />
<rect x="62" y="139" width="2" height="2" fill="#E5E5E5" />
<rect x="64" y="139" width="2" height="4" fill="#B4B4B4" />
<rect x="66" y="139" width="14" height="2" fill="#C9C9C9" />
<rect x="80" y="139" width="2" height="2" fill="#E5E5E5" />
<rect x="96" y="139" width="4" height="12" fill="#E5E5E5" />
<rect x="104" y="139" width="2" height="2" fill="#D4D4D4" />
<rect x="110" y="139" width="4" height="32" fill="#E5E5E5" />
<rect x="8" y="141" width="2" height="8" fill="#818181" />
<rect x="10" y="141" width="2" height="4" fill="#9C9C9C" />
<rect x="34" y="141" width="10" height="16" fill="#E5E5E5" />
<rect x="54" y="141" width="2" height="2" fill="#E5E5E5" />
<rect x="56" y="141" width="2" height="2" fill="#D4D4D4" />
<rect x="58" y="141" width="6" height="2" fill="#9C9C9C" />
<rect x="66" y="141" width="14" height="2" fill="#B4B4B4" />
<rect x="80" y="141" width="6" height="2" fill="#C9C9C9" />
<rect x="86" y="141" width="2" height="2" fill="#D4D4D4" />
<rect x="88" y="141" width="4" height="2" fill="#E5E5E5" />
<rect x="100" y="141" width="10" height="16" fill="#E5E5E5" />
<rect x="130" y="141" width="24" height="4" fill="#D8D8D8" />
<rect x="154" y="141" width="26" height="34" fill="#B0B0B0" />
<rect x="180" y="141" width="4" height="38" fill="#D8D8D8" />
<rect x="54" y="143" width="2" height="2" fill="#D4D4D4" />
<rect x="56" y="143" width="2" height="4" fill="#9C9C9C" />
<rect x="58" y="143" width="8" height="2" fill="#818181" />
<rect x="66" y="143" width="8" height="2" fill="#9C9C9C" />
<rect x="74" y="143" width="6" height="2" fill="#A8A8A8" />
<rect x="80" y="143" width="6" height="2" fill="#B4B4B4" />
<rect x="86" y="143" width="2" height="2" fill="#C9C9C9" />
<rect x="88" y="143" width="2" height="2" fill="#D4D4D4" />
<rect x="90" y="143" width="2" height="2" fill="#E5E5E5" />
<rect x="10" y="145" width="2" height="28" fill="#B4B4B4" />
<rect x="12" y="145" width="2" height="28" fill="#C9C9C9" />
<rect x="14" y="145" width="2" height="28" fill="#E5E5E5" />
<rect x="52" y="145" width="2" height="2" fill="#D4D4D4" />
<rect x="54" y="145" width="2" height="2" fill="#9C9C9C" />
<rect x="72" y="145" width="2" height="40" fill="#6F6F6F" />
<rect x="74" y="145" width="6" height="2" fill="#9C9C9C" />
<rect x="80" y="145" width="6" height="2" fill="#A8A8A8" />
<rect x="86" y="145" width="2" height="2" fill="#B4B4B4" />
<rect x="88" y="145" width="2" height="2" fill="#C9C9C9" />
<rect x="90" y="145" width="2" height="2" fill="#D4D4D4" />
<rect x="128" y="145" width="2" height="28" fill="#E5E5E5" />
<rect x="130" y="145" width="2" height="28" fill="#C9C9C9" />
<rect x="132" y="145" width="22" height="34" fill="#D8D8D8" />
<rect x="50" y="147" width="2" height="4" fill="#D4D4D4" />
<rect x="52" y="147" width="2" height="4" fill="#9C9C9C" />
<rect x="74" y="147" width="2" height="38" fill="#9A9A9A" />
<rect x="76" y="147" width="2" height="36" fill="#A9A9A9" />
<rect x="78" y="147" width="2" height="34" fill="#C7C7C7" />
<rect x="80" y="147" width="2" height="2" fill="#818181" />
<rect x="82" y="147" width="4" height="2" fill="#9C9C9C" />
<rect x="86" y="147" width="2" height="4" fill="#A8A8A8" />
<rect x="88" y="147" width="2" height="4" fill="#B4B4B4" />
<rect x="90" y="147" width="2" height="4" fill="#C9C9C9" />
<rect x="92" y="147" width="2" height="4" fill="#D4D4D4" />
<rect x="6" y="149" width="2" height="22" fill="#818181" />
<rect x="8" y="149" width="2" height="22" fill="#9C9C9C" />
<rect x="48" y="149" width="2" height="8" fill="#D4D4D4" />
<rect x="80" y="149" width="2" height="30" fill="#D8D8D8" />
<rect x="82" y="149" width="2" height="2" fill="#818181" />
<rect x="84" y="149" width="2" height="2" fill="#9C9C9C" />
<rect x="94" y="149" width="2" height="8" fill="#D4D4D4" />
<rect x="44" y="151" width="2" height="2" fill="#E5E5E5" />
<rect x="46" y="151" width="2" height="12" fill="#D4D4D4" />
<rect x="50" y="151" width="2" height="6" fill="#9C9C9C" />
<rect x="82" y="151" width="2" height="28" fill="#D8D8D8" />
<rect x="84" y="151" width="2" height="4" fill="#818181" />
<rect x="86" y="151" width="2" height="4" fill="#9C9C9C" />
<rect x="88" y="151" width="2" height="6" fill="#A8A8A8" />
<rect x="90" y="151" width="2" height="6" fill="#B4B4B4" />
<rect x="92" y="151" width="2" height="6" fill="#C9C9C9" />
<rect x="96" y="151" width="2" height="12" fill="#D4D4D4" />
<rect x="98" y="151" width="2" height="2" fill="#E5E5E5" />
<rect x="44" y="153" width="2" height="16" fill="#D4D4D4" />
<rect x="98" y="153" width="2" height="16" fill="#D4D4D4" />
<rect x="84" y="155" width="2" height="24" fill="#D8D8D8" />
<rect x="86" y="155" width="2" height="6" fill="#818181" />
<rect x="34" y="157" width="8" height="4" fill="#E5E5E5" />
<rect x="42" y="157" width="2" height="14" fill="#D4D4D4" />
<rect x="48" y="157" width="2" height="6" fill="#9C9C9C" />
<rect x="88" y="157" width="2" height="6" fill="#9C9C9C" />
<rect x="90" y="157" width="2" height="6" fill="#A8A8A8" />
<rect x="92" y="157" width="2" height="6" fill="#B4B4B4" />
<rect x="94" y="157" width="2" height="6" fill="#C9C9C9" />
<rect x="100" y="157" width="2" height="14" fill="#D4D4D4" />
<rect x="102" y="157" width="8" height="4" fill="#E5E5E5" />
<rect x="34" y="161" width="6" height="2" fill="#E5E5E5" />
<rect x="40" y="161" width="2" height="12" fill="#D4D4D4" />
<rect x="86" y="161" width="2" height="18" fill="#D8D8D8" />
<rect x="102" y="161" width="2" height="12" fill="#D4D4D4" />
<rect x="104" y="161" width="6" height="2" fill="#E5E5E5" />
<rect x="34" y="163" width="4" height="4" fill="#E5E5E5" />
<rect x="38" y="163" width="2" height="12" fill="#D4D4D4" />
<rect x="46" y="163" width="2" height="6" fill="#9C9C9C" />
<rect x="88" y="163" width="2" height="4" fill="#818181" />
<rect x="90" y="163" width="2" height="6" fill="#9C9C9C" />
<rect x="92" y="163" width="2" height="6" fill="#A8A8A8" />
<rect x="94" y="163" width="2" height="6" fill="#B4B4B4" />
<rect x="96" y="163" width="2" height="6" fill="#C9C9C9" />
<rect x="104" y="163" width="2" height="12" fill="#D4D4D4" />
<rect x="106" y="163" width="4" height="4" fill="#E5E5E5" />
<rect x="34" y="167" width="2" height="2" fill="#E5E5E5" />
<rect x="36" y="167" width="2" height="10" fill="#D4D4D4" />
<rect x="88" y="167" width="2" height="12" fill="#D8D8D8" />
<rect x="106" y="167" width="2" height="10" fill="#D4D4D4" />
<rect x="108" y="167" width="2" height="2" fill="#E5E5E5" />
<rect x="34" y="169" width="2" height="10" fill="#D4D4D4" />
<rect x="44" y="169" width="2" height="2" fill="#9C9C9C" />
<rect x="90" y="169" width="2" height="2" fill="#818181" />
<rect x="92" y="169" width="2" height="2" fill="#9C9C9C" />
<rect x="94" y="169" width="2" height="2" fill="#A8A8A8" />
<rect x="96" y="169" width="2" height="2" fill="#B4B4B4" />
<rect x="98" y="169" width="2" height="2" fill="#C9C9C9" />
<rect x="108" y="169" width="2" height="10" fill="#D4D4D4" />
<rect x="6" y="171" width="2" height="6" fill="#5E5E5E" />
<rect x="8" y="171" width="2" height="6" fill="#818181" />
<rect x="30" y="171" width="2" height="2" fill="#E5E5E5" />
<rect x="32" y="171" width="2" height="8" fill="#D4D4D4" />
<rect x="42" y="171" width="2" height="2" fill="#9C9C9C" />
<rect x="90" y="171" width="2" height="2" fill="#727272" />
<rect x="92" y="171" width="2" height="2" fill="#818181" />
<rect x="94" y="171" width="2" height="2" fill="#9C9C9C" />
<rect x="96" y="171" width="2" height="2" fill="#A8A8A8" />
<rect x="98" y="171" width="2" height="2" fill="#B4B4B4" />
<rect x="100" y="171" width="2" height="2" fill="#C9C9C9" />
<rect x="110" y="171" width="2" height="8" fill="#D4D4D4" />
<rect x="112" y="171" width="2" height="2" fill="#E5E5E5" />
<rect x="10" y="173" width="2" height="2" fill="#9C9C9C" />
<rect x="12" y="173" width="2" height="2" fill="#B4B4B4" />
<rect x="14" y="173" width="2" height="2" fill="#C9C9C9" />
<rect x="30" y="173" width="2" height="6" fill="#D4D4D4" />
<rect x="40" y="173" width="2" height="2" fill="#9C9C9C" />
<rect x="90" y="173" width="2" height="6" fill="#D8D8D8" />
<rect x="92" y="173" width="2" height="2" fill="#727272" />
<rect x="94" y="173" width="2" height="2" fill="#818181" />
<rect x="96" y="173" width="2" height="2" fill="#9C9C9C" />
<rect x="98" y="173" width="2" height="2" fill="#A8A8A8" />
<rect x="100" y="173" width="2" height="2" fill="#B4B4B4" />
<rect x="102" y="173" width="2" height="2" fill="#C9C9C9" />
<rect x="112" y="173" width="2" height="6" fill="#D4D4D4" />
<rect x="128" y="173" width="2" height="2" fill="#C9C9C9" />
<rect x="130" y="173" width="2" height="6" fill="#D8D8D8" />
<rect x="10" y="175" width="2" height="4" fill="#818181" />
<rect x="12" y="175" width="2" height="2" fill="#9C9C9C" />
<rect x="14" y="175" width="2" height="2" fill="#B4B4B4" />
<rect x="16" y="175" width="2" height="2" fill="#C9C9C9" />
<rect x="28" y="175" width="2" height="4" fill="#D4D4D4" />
<rect x="38" y="175" width="2" height="2" fill="#9C9C9C" />
<rect x="92" y="175" width="2" height="4" fill="#D8D8D8" />
<rect x="94" y="175" width="2" height="2" fill="#727272" />
<rect x="96" y="175" width="2" height="2" fill="#818181" />
<rect x="98" y="175" width="2" height="2" fill="#9C9C9C" />
<rect x="100" y="175" width="2" height="2" fill="#A8A8A8" />
<rect x="102" y="175" width="2" height="2" fill="#B4B4B4" />
<rect x="104" y="175" width="2" height="2" fill="#C9C9C9" />
<rect x="114" y="175" width="2" height="4" fill="#D4D4D4" />
<rect x="126" y="175" width="2" height="2" fill="#C9C9C9" />
<rect x="128" y="175" width="2" height="4" fill="#D8D8D8" />
<rect x="154" y="175" width="26" height="4" fill="#D8D8D8" />
<rect x="8" y="177" width="2" height="2" fill="#5E5E5E" />
<rect x="12" y="177" width="2" height="4" fill="#818181" />
<rect x="14" y="177" width="2" height="2" fill="#9C9C9C" />
<rect x="16" y="177" width="2" height="2" fill="#B4B4B4" />
<rect x="18" y="177" width="4" height="2" fill="#C9C9C9" />
<rect x="26" y="177" width="2" height="2" fill="#D4D4D4" />
<rect x="36" y="177" width="2" height="2" fill="#9C9C9C" />
<rect x="94" y="177" width="2" height="2" fill="#D8D8D8" />
<rect x="96" y="177" width="2" height="2" fill="#727272" />
<rect x="98" y="177" width="2" height="2" fill="#818181" />
<rect x="100" y="177" width="2" height="2" fill="#9C9C9C" />
<rect x="102" y="177" width="2" height="2" fill="#A8A8A8" />
<rect x="104" y="177" width="2" height="2" fill="#B4B4B4" />
<rect x="106" y="177" width="2" height="2" fill="#C9C9C9" />
<rect x="116" y="177" width="2" height="2" fill="#D4D4D4" />
<rect x="122" y="177" width="4" height="2" fill="#C9C9C9" />
<rect x="126" y="177" width="2" height="2" fill="#D8D8D8" />
<rect x="10" y="179" width="2" height="2" fill="#5E5E5E" />
<rect x="14" y="179" width="2" height="2" fill="#818181" />
<rect x="16" y="179" width="2" height="2" fill="#9C9C9C" />
<rect x="18" y="179" width="4" height="2" fill="#B4B4B4" />
<rect x="22" y="179" width="10" height="2" fill="#C9C9C9" />
<rect x="32" y="179" width="4" height="2" fill="#9C9C9C" />
<rect x="80" y="179" width="18" height="2" fill="#C7C7C7" />
<rect x="98" y="179" width="2" height="2" fill="#727272" />
<rect x="100" y="179" width="2" height="2" fill="#818181" />
<rect x="102" y="179" width="2" height="2" fill="#9C9C9C" />
<rect x="104" y="179" width="2" height="2" fill="#A8A8A8" />
<rect x="106" y="179" width="2" height="2" fill="#B4B4B4" />
<rect x="108" y="179" width="14" height="2" fill="#C9C9C9" />
<rect x="122" y="179" width="62" height="2" fill="#C7C7C7" />
<rect x="184" y="179" width="2" height="2" fill="#ABABAB" />
<rect x="12" y="181" width="4" height="2" fill="#5E5E5E" />
<rect x="16" y="181" width="2" height="2" fill="#818181" />
<rect x="18" y="181" width="6" height="2" fill="#9C9C9C" />
<rect x="24" y="181" width="6" height="2" fill="#B4B4B4" />
<rect x="30" y="181" width="2" height="2" fill="#9C9C9C" />
<rect x="78" y="181" width="22" height="2" fill="#A9A9A9" />
<rect x="100" y="181" width="2" height="2" fill="#727272" />
<rect x="102" y="181" width="2" height="2" fill="#818181" />
<rect x="104" y="181" width="2" height="2" fill="#9C9C9C" />
<rect x="106" y="181" width="2" height="2" fill="#A8A8A8" />
<rect x="108" y="181" width="12" height="2" fill="#B4B4B4" />
<rect x="120" y="181" width="62" height="2" fill="#A9A9A9" />
<rect x="182" y="181" width="2" height="2" fill="#9A9A9A" />
<rect x="16" y="183" width="2" height="2" fill="#5E5E5E" />
<rect x="18" y="183" width="8" height="2" fill="#818181" />
<rect x="26" y="183" width="2" height="2" fill="#9C9C9C" />
<rect x="28" y="183" width="2" height="2" fill="#818181" />
<rect x="76" y="183" width="26" height="2" fill="#9A9A9A" />
<rect x="102" y="183" width="2" height="2" fill="#727272" />
<rect x="104" y="183" width="12" height="2" fill="#818181" />
<rect x="116" y="183" width="64" height="2" fill="#9A9A9A" />
<rect x="180" y="183" width="2" height="2" fill="#6F6F6F" />
</svg>